<svg width="75" height="71" viewBox="0 0 75 71" fill="none" xmlns="http://www.w3.org/2000/svg">
<path d="M71.527 23.0172C71.3488 23.7793 71.23 24.6 71.0518 25.3621C69.3883 31.8107 63.4475 36.3832 56.7344 36.3832C56.2591 36.3832 55.9621 36.5591 55.6651 36.8522C49.0114 44.2387 49.1302 55.4357 56.0215 62.5877C56.0809 62.7049 56.1997 62.7635 56.2591 62.8808C56.7344 63.4084 56.7938 63.936 56.3186 64.3463C55.9027 64.7567 55.368 64.6981 54.8334 64.1118C54.4175 63.7015 54.061 63.2911 53.6452 62.8221C47.3479 55.3184 47.1697 44.3559 53.2887 36.735C53.4076 36.5591 53.5858 36.3832 53.7046 36.2074C52.6947 35.8556 51.6847 35.5625 50.7342 35.1522C49.7837 34.7418 48.8925 34.2142 47.8826 33.6866C47.7638 34.3901 47.645 35.1522 47.5262 35.8556C46.7538 39.7247 45.031 43.1249 42.1794 45.8215C39.3872 48.4595 38.0209 51.6252 37.7832 55.377C37.6644 56.7254 37.1891 58.0151 36.8327 59.3634C36.6545 59.9496 36.1198 60.1255 35.6445 59.9496C35.1693 59.7738 34.8722 59.3048 35.0504 58.8358C35.8228 57.0185 35.8822 55.0839 36.1792 53.1494C36.6545 50.101 37.9614 47.4043 40.219 45.1767C43.2488 42.3041 45.0904 38.8454 45.8033 34.7418C45.8033 34.6246 45.8033 34.5073 45.8627 34.3901C46.2192 32.9245 45.8627 31.8107 44.8528 30.5796C42.4765 27.8243 41.5853 24.4828 41.7042 20.9068C41.7042 20.6723 41.5853 20.3792 41.4071 20.1447C36.5951 14.7514 28.7532 12.7582 21.8618 15.1618C21.6836 15.2204 21.5054 15.279 21.3272 15.3376C20.7331 15.5135 20.3172 15.3376 20.0796 14.81C19.9014 14.341 20.0796 13.8134 20.6737 13.6376C21.9213 13.2272 23.1688 12.8168 24.4164 12.641C31.0701 11.5858 36.8327 13.4031 41.7636 17.917C41.823 17.9757 41.8824 18.0343 41.9418 18.0929C41.9418 18.0929 42.0012 18.0929 42.0606 18.0929C42.12 17.8584 42.1794 17.6825 42.2982 17.4481C44.2587 10.9995 50.6154 6.60283 57.3285 7.01319C64.3386 7.42355 70.0418 12.4065 71.23 19.2067C71.2894 19.5585 71.3488 19.9688 71.4676 20.3206C71.527 21.1999 71.527 22.1379 71.527 23.0172ZM69.6854 21.6689C69.6854 14.5755 63.804 8.83049 56.6156 8.83049C49.4866 8.83049 43.6052 14.6342 43.6052 21.6689C43.6052 28.7036 49.4866 34.5659 56.6156 34.5659C63.804 34.5073 69.6854 28.7623 69.6854 21.6689Z" fill="#FF7900"/>
<path d="M7.96049 42.7731C7.96049 39.1385 7.90108 35.5039 7.96049 31.8693C8.13871 25.3035 10.9309 20.0275 16.2776 16.0411C16.337 15.9825 16.3964 15.9239 16.4558 15.9239C17.0499 15.5135 17.5846 15.5135 17.941 15.9825C18.2975 16.4515 18.1193 16.9791 17.5252 17.4481C17.1093 17.7412 16.6935 18.0343 16.2776 18.386C12.1785 21.8448 9.92095 26.2415 9.86154 31.5762C9.74273 39.0799 9.80214 46.5836 9.86154 54.146C9.92095 61.298 16.2182 67.1602 23.466 66.8671C27.1493 66.7499 30.2385 65.2843 32.7337 62.5877C32.8525 62.4704 32.9119 62.3532 33.0307 62.2945C33.4466 61.9428 33.9218 61.8842 34.3377 62.2359C34.7535 62.5877 34.813 63.1153 34.3971 63.5256C33.6248 64.2877 32.8525 65.1084 31.9614 65.7533C22.9313 72.3777 10.1586 67.2775 8.25753 56.2564C8.0793 55.377 8.01989 54.4391 8.01989 53.5011C7.90108 49.9251 7.96049 46.3491 7.96049 42.7731Z" fill="#FF7900"/>
<path d="M18.1193 39.0212C19.4263 38.2591 20.7332 37.8488 22.159 37.8488C25.9018 37.8488 29.1098 40.604 29.6445 44.2386C30.1791 47.8146 27.8622 51.332 24.2977 52.3286C23.7037 52.5045 23.1096 52.5631 22.4561 52.6217C21.7432 52.6803 21.2679 52.3286 21.2679 51.7424C21.2085 51.1561 21.6244 50.8044 22.3373 50.7458C25.1294 50.5699 27.2681 48.7526 27.7434 46.1146C28.1593 43.8283 26.9711 41.4834 24.8918 40.3109C22.8125 39.1971 20.1986 39.4316 18.4757 41.0144C18.2381 41.1903 18.1193 41.542 18.1193 41.8351C18.0599 43.5352 18.1193 45.1766 18.1193 46.8767C18.1193 47.6388 17.7628 48.1078 17.1688 48.0491C16.5747 48.0491 16.2182 47.5802 16.2182 46.8181C16.2182 41.8937 16.2182 36.9108 16.2182 31.9865C16.2776 26.0069 20.9115 20.9654 26.8523 20.4964C32.9119 20.0274 38.2586 24.0138 39.3874 29.9347C39.5062 30.5795 39.5062 31.1657 39.5656 31.8106C39.5656 32.4555 39.2092 32.8072 38.6745 32.8658C38.0804 32.8658 37.724 32.5141 37.724 31.8106C37.724 30.5209 37.4269 29.2312 36.8923 28.0587C35.0506 23.8965 30.4762 21.5516 26.0206 22.4309C21.4461 23.3103 18.1787 27.238 18.1193 31.8106C18.1193 34.2728 18.1193 36.559 18.1193 39.0212Z" fill="#FF7900"/>
<path d="M55.1899 49.9837C55.2493 45.587 56.6157 42.1868 59.4079 39.3143C59.8832 38.7867 60.4773 38.7867 60.8931 39.1971C61.309 39.6074 61.2496 40.135 60.7149 40.6627C59.1703 42.2455 58.1009 44.0628 57.5663 46.1146C56.4375 50.6285 57.388 54.6735 60.5367 58.1909C60.6555 58.3081 60.7149 58.3668 60.8337 58.484C61.2496 58.953 61.2496 59.4806 60.8337 59.8323C60.4179 60.1841 59.9426 60.1841 59.4673 59.7151C57.4475 57.7219 56.1405 55.3184 55.5464 52.5631C55.3088 51.5665 55.2493 50.5113 55.1899 49.9837Z" fill="#FF7900"/>
<path d="M64.6361 43.1836C64.9331 43.4181 65.2896 43.5353 65.4084 43.8284C65.5272 44.1216 65.4678 44.5319 65.349 44.7664C65.2302 45.1181 64.8737 45.3526 64.6361 45.6458C62.735 48.1665 62.9132 51.508 64.9925 53.853C65.646 54.5564 65.7054 55.084 65.2302 55.4944C64.7549 55.9048 64.2202 55.7875 63.5667 55.084C60.7151 51.8598 60.7745 46.9355 63.7449 43.8871C63.9826 43.594 64.2796 43.4181 64.6361 43.1836Z" fill="#FF7900"/>
<path d="M52.9322 25.3034C51.744 25.3034 50.6153 25.3034 49.4865 25.3034C48.0013 25.3034 47.4072 24.7172 47.4072 23.2516C47.4072 22.1964 47.4072 21.0826 47.4072 20.0274C47.4072 18.6204 48.0607 18.0342 49.4865 18.0342C50.437 18.0342 51.3282 18.0342 52.2787 18.0342C52.4569 18.0342 52.6946 18.0342 52.9322 17.9756C52.9322 16.9204 52.9322 15.8652 52.9322 14.8099C52.9322 13.1099 53.4669 12.5823 55.1897 12.5823C56.3184 12.5823 57.4472 12.5823 58.5165 12.5823C59.6453 12.5823 60.2988 13.2271 60.2988 14.341C60.2988 15.5134 60.2988 16.7445 60.2988 17.9756C61.4275 17.9756 62.5563 17.9756 63.6257 17.9756C65.2297 17.9756 65.7643 18.5618 65.7643 20.1446C65.7643 21.1998 65.7643 22.3137 65.7643 23.3689C65.7643 24.6586 65.1108 25.2448 63.8039 25.3034C62.6751 25.3034 61.487 25.3034 60.2394 25.3034C60.2394 26.4173 60.2394 27.4725 60.2394 28.5277C60.2394 30.2278 59.7047 30.7554 57.9819 30.7554C56.9125 30.7554 55.8432 30.7554 54.7738 30.7554C53.5263 30.7554 52.9322 30.1105 52.8728 28.8794C52.9322 27.707 52.9322 26.5931 52.9322 25.3034ZM63.9227 19.8515C63.6851 19.8515 63.5068 19.8515 63.2692 19.8515C62.1999 19.8515 61.1305 19.8515 60.1206 19.8515C59.17 19.8515 58.5165 19.2067 58.4571 18.2101C58.4571 17.3307 58.4571 16.3928 58.4571 15.5134C58.4571 15.1617 58.4571 14.8099 58.4571 14.4582C57.2096 14.4582 56.0214 14.4582 54.8926 14.4582C54.8926 14.5168 54.8332 14.5755 54.8332 14.6341C54.8332 15.6893 54.8332 16.8031 54.8332 17.8583C54.8332 19.2653 54.2392 19.8515 52.8134 19.8515C51.6846 19.8515 50.4965 19.8515 49.3677 19.8515C49.3677 21.0826 49.3677 22.255 49.3677 23.4861C50.4965 23.4861 51.5658 23.4861 52.6351 23.4861C54.2986 23.4861 54.8332 24.0137 54.8332 25.6552C54.8332 26.7104 54.8332 27.8242 54.8332 28.8794C56.0808 28.8794 57.269 28.8794 58.5165 28.8794C58.5165 27.8828 58.576 26.9449 58.5165 26.0069C58.3977 24.0137 59.1106 23.3689 61.0711 23.4861C62.0216 23.5448 62.9722 23.4861 63.9821 23.4861C63.9227 22.255 63.9227 21.0826 63.9227 19.8515Z" fill="#FF7900"/>
</svg>
