<svg width="80" height="76" viewBox="0 0 80 76" fill="none" xmlns="http://www.w3.org/2000/svg">
<path d="M9.6665 43.5924C9.85698 42.3019 9.95222 40.9635 10.1903 39.673C11.1427 34.1283 13.3332 29.1094 16.7141 24.6163C17.1903 23.995 17.7141 23.8994 18.1903 24.234C18.6665 24.6163 18.7141 25.1899 18.2379 25.7635C16.0951 28.6314 14.4284 31.7862 13.2856 35.1799C13.1427 35.6579 13.2379 35.8491 13.5713 36.1358C14.9998 37.2352 16.3808 38.2868 17.7617 39.434C20.2856 41.5371 21.7141 44.2616 21.7617 47.6075C21.8094 53.1522 21.7617 58.7446 21.8094 64.2893C21.8094 64.5283 21.8094 64.8151 21.8094 65.1497C22.0951 65.1497 22.3332 65.1975 22.5713 65.1975C24.1427 65.1497 25.7141 65.2453 27.2379 65.1019C29.5236 64.8629 31.2379 62.8075 31.2855 60.5132C31.3332 57.4541 31.2855 54.4428 31.2855 51.3836C31.2855 51.1446 31.2855 50.9535 31.2855 50.7145C31.3808 50.1887 31.7141 49.8541 32.2856 49.9019C32.857 49.9497 33.1427 50.2365 33.1903 50.8101C33.1903 50.9535 33.1903 51.0969 33.1903 51.288C33.1903 54.2038 33.1903 57.1673 33.1903 60.083C33.1903 64.1937 30.2855 67.1572 26.1427 67.1572C22.9998 67.1572 19.8094 67.1572 16.6665 67.1572C13.0951 67.1572 10.5236 65.0063 9.76174 61.4692C9.76174 61.3736 9.6665 61.278 9.6665 61.1824C9.6665 55.3509 9.6665 49.4717 9.6665 43.5924ZM19.7617 52.3874C19.7617 51.4792 19.7617 50.6667 19.7617 49.8063C19.1903 49.8063 18.6189 49.8063 18.0951 49.8063C17.2855 49.8063 16.9046 49.4717 16.9046 48.8503C16.9046 48.2289 17.2855 47.8943 18.0951 47.8465C18.6665 47.8465 19.1903 47.8465 19.8094 47.8465C19.8094 47.6553 19.8094 47.5597 19.8094 47.4641C19.8094 47.273 19.8094 47.0818 19.7617 46.8906C19.476 45.0264 18.8094 43.2579 17.4284 41.9673C15.9046 40.5333 14.2379 39.2428 12.5713 37.8566C12.476 38.1434 12.4284 38.239 12.3808 38.3824C12.0951 40.4855 11.6665 42.5887 11.6189 44.6918C11.5236 49.9497 11.5713 55.1597 11.5713 60.4176C11.5713 62.6163 12.9998 64.5761 15.1427 65.0063C16.6189 65.2931 18.1903 65.2453 19.7141 65.2931C19.7141 63.0465 19.7141 60.9912 19.7141 58.8402C19.0951 58.8402 18.476 58.8402 17.857 58.8402C17.1903 58.8402 16.8094 58.4101 16.8094 57.8365C16.8094 57.2629 17.1903 56.8805 17.9046 56.8805C18.5236 56.8805 19.0951 56.8805 19.7617 56.8805C19.7617 56.1157 19.7617 55.3987 19.7617 54.7296C19.7617 54.5862 19.7141 54.4906 19.7141 54.2994C19.0951 54.2994 18.5236 54.2994 17.9522 54.2994C17.2379 54.2994 16.857 53.9648 16.857 53.3912C16.8094 52.7698 17.2379 52.3874 17.9522 52.3874C18.5713 52.3874 19.1427 52.3874 19.7617 52.3874Z" fill="#FF7900"/>
<path d="M36.9524 18.5459C38.4286 20.4579 38.3809 22.4176 37.3333 24.4252C35.5714 27.7711 34.2381 31.2604 33.7143 35.0365C33.4286 37.1397 33.3333 39.3384 33.2381 41.4893C33.1428 43.2579 33.2381 45.0742 33.2381 46.8428C33.2381 47.5598 32.8571 47.99 32.2381 47.9422C31.6667 47.9422 31.2857 47.512 31.2857 46.8428C31.3333 43.4013 31.2857 39.9598 31.5238 36.5661C31.8095 32.6466 33 28.9661 34.6667 25.3812C35.0476 24.5686 35.4762 23.756 35.8571 22.8956C36.5238 21.4139 36 19.8843 34.5238 19.1673C33.0476 18.4503 31.5238 17.7334 30 17.0164C28.9048 16.4906 27.8571 16.634 26.9524 17.3988C24.9524 19.1195 23 20.8403 21 22.561C20.4762 23.039 19.9048 23.0868 19.5238 22.7044C19.0952 22.2742 19.0952 21.6529 19.619 21.2227C21.7619 19.3107 23.9048 17.3988 26.1428 15.6302C27.619 14.4831 29.3333 14.5308 31.0476 15.3434C31.1428 15.2 31.2857 15.1044 31.3809 14.961C32.4286 13.5749 33.3809 12.1887 34.4762 10.8503C38.2857 6.35727 43.0952 4.68431 48.7619 6.21387C54.3809 7.74343 57.6667 11.7107 58.6667 17.4944C59 19.5019 58.6667 21.5095 58.2857 23.517C57.6667 26.7673 57.4286 30.0176 57.4762 33.3158C57.4762 34.7497 57.4762 36.1359 57.4762 37.5698C58.1905 37.9044 58.9524 38.1434 59.619 38.5258C63.8095 40.7246 66.1905 45.5522 65.3333 50.1409C64.4286 55.0642 60.619 58.7447 55.7619 59.2705C48.9524 60.0831 43.0476 54.5862 43.4762 47.7032C43.7619 43.1623 46.1428 39.9598 50.2857 38.0956C50.7619 37.9044 50.9047 37.6654 50.9047 37.1397C51 33.5547 51.0476 29.922 51.2381 26.3371C51.3809 24.2818 51.8571 22.2742 52.1428 20.2189C52.5238 17.1598 50.8571 14.2919 48.0952 13.0013C45.3809 11.7107 42 12.3321 40 14.5786C38.9047 15.8214 37.9524 17.2076 36.9524 18.5459ZM45.4286 48.3724C45.4286 53.3434 49.5238 57.4541 54.4762 57.4541C59.4762 57.4541 63.5714 53.3434 63.5714 48.3246C63.5714 43.3057 59.4762 39.2428 54.4762 39.2428C49.5238 39.195 45.4286 43.3057 45.4286 48.3724ZM55.5714 37.2831C55.5714 36.8529 55.5714 36.4705 55.5714 36.1359C55.4762 31.2126 55.8571 26.3371 56.6667 21.4617C58.1905 12.6189 49.8571 5.49689 41.4286 8.26921C37.3333 9.60758 35.2381 13.0491 32.9047 16.2516C33.7619 16.634 34.5238 17.0164 35.3333 17.3988C36.3333 16.1082 37.2381 14.8176 38.1905 13.6227C40.4762 10.8503 44.2857 9.70318 47.7619 10.7547C51.2381 11.8063 53.8571 14.9132 54.0476 18.4981C54.1428 19.9321 53.9047 21.4139 53.6667 22.8C52.8571 27.4843 52.8095 32.1686 52.8571 36.9007C52.8571 37.0441 52.9048 37.1397 52.9048 37.2831C53.8095 37.2831 54.619 37.2831 55.5714 37.2831Z" fill="#FF7900"/>
<path d="M63.5237 70.2642C63.1427 70.2642 62.9522 70.2642 62.7618 70.2642C62.1903 70.2164 61.8094 69.8818 61.7617 69.356C61.7617 68.8302 62.0475 68.4 62.6665 68.3522C63.2856 68.2566 63.857 68.3044 64.476 68.2088C69.9998 67.3485 74.0951 62.6642 74.2856 57.0717C74.2856 56.2591 74.6665 55.7812 75.2856 55.829C75.9046 55.829 76.2379 56.3069 76.2379 57.1195C76.1903 63.5724 71.0951 69.3082 64.7141 70.1686C64.2856 70.1686 63.8094 70.2164 63.5237 70.2642Z" fill="#FF7900"/>
<path d="M27.0951 33.268C27.0951 35.419 25.3808 37.1875 23.2379 37.1875C21.0951 37.1875 19.3808 35.4668 19.3808 33.3636C19.3808 31.2127 21.0475 29.4441 23.1903 29.4441C25.3808 29.3485 27.0951 31.0693 27.0951 33.268ZM21.3332 33.268C21.3332 34.3196 22.1903 35.18 23.2379 35.18C24.2856 35.18 25.1903 34.3196 25.1427 33.2202C25.1427 32.1686 24.2856 31.3083 23.2379 31.3083C22.1903 31.3561 21.3332 32.2164 21.3332 33.268Z" fill="#FF7900"/>
<path d="M72.2381 57.2629C72.0477 62.1384 67.9048 66.2013 63 66.2969C62.2381 66.2969 61.8096 65.9623 61.8096 65.3409C61.8096 64.7195 62.1905 64.3849 62.9048 64.3371C67.1429 64.0503 70 61.1824 70.2858 56.9761C70.3334 56.2113 70.7143 55.7811 71.2858 55.7811C71.9524 55.7811 72.2858 56.3069 72.2381 57.2629Z" fill="#FF7900"/>
<path d="M31.9044 24.2818C31.9044 26.146 30.4282 27.5799 28.5711 27.5799C26.7616 27.5799 25.333 26.0982 25.333 24.2818C25.333 22.4655 26.8092 20.9359 28.6187 20.9359C30.4282 20.9359 31.9044 22.4177 31.9044 24.2818ZM29.9521 24.234C29.9521 23.517 29.333 22.8957 28.6187 22.8957C27.8568 22.8957 27.2854 23.517 27.2854 24.2818C27.2854 24.9988 27.9044 25.6202 28.6187 25.6202C29.3806 25.6202 29.9997 24.9988 29.9521 24.234Z" fill="#FF7900"/>
<path d="M68.1901 57.0717C68.0949 59.844 65.6663 62.234 62.9044 62.234C62.2854 62.234 61.8568 61.8994 61.8092 61.3736C61.7615 60.8 62.0949 60.4176 62.7615 60.322C64.9996 59.9874 65.952 59.0315 66.2377 56.8327C66.333 56.2113 66.7616 55.7811 67.2854 55.8289C67.9044 55.8289 68.2377 56.2591 68.1901 57.0717Z" fill="#FF7900"/>
<path d="M59.0951 48.3246C59.0951 50.9057 57.0475 53.0089 54.476 52.9611C51.9522 52.9611 49.857 50.8579 49.857 48.3246C49.857 45.7913 51.9046 43.7359 54.4284 43.7359C57.0475 43.6881 59.0951 45.7435 59.0951 48.3246ZM54.5237 45.6479C53.0475 45.6479 51.857 46.795 51.857 48.2768C51.8094 49.7586 53.0475 51.0013 54.5237 51.0013C55.9999 51.0013 57.1903 49.8064 57.1903 48.2768C57.1427 46.8428 55.9999 45.6479 54.5237 45.6479Z" fill="#FF7900"/>
</svg>
