<svg width="70" height="66" viewBox="0 0 70 66" fill="none" xmlns="http://www.w3.org/2000/svg">
<path d="M33.4113 65.6349C32.1553 65.3048 30.79 65.0847 29.5886 64.6446C24.4553 62.6642 20.9603 57.548 20.851 52.0468C20.7964 50.0113 20.851 47.9758 20.851 45.9404C20.851 45.7203 20.851 45.5003 20.851 45.1702C18.8851 45.3352 16.9737 45.3903 15.0624 45.6653C14.5163 45.7203 14.0794 46.2705 13.5879 46.6005C13.4241 46.7106 13.3149 46.9856 13.2056 47.2057C12.5503 48.3609 11.3489 48.9111 10.0929 48.636C8.83685 48.3059 8.0177 47.2607 8.0177 45.8854C8.0177 45.4453 8.0177 45.0602 8.0177 44.6201C8.07231 44.0149 8.45458 43.6299 8.94607 43.6299C9.49217 43.6299 9.81983 44.0149 9.87444 44.6201C9.87444 45.0602 9.87444 45.5003 9.87444 45.9404C9.87444 46.3805 10.0929 46.7106 10.5298 46.8206C10.9666 46.9306 11.2943 46.7656 11.5127 46.3805C12.4411 44.5651 13.9156 43.7949 15.8815 43.6849C18.612 43.5748 21.2879 43.3548 24.0184 43.1347C26.1482 42.9697 27.6773 41.2093 27.6773 39.0638C27.6773 36.9733 26.1482 35.2129 24.0184 35.0479C21.2333 34.8279 18.4482 34.6078 15.6085 34.4428C13.7517 34.3327 12.3865 33.5076 11.5673 31.8572C11.3489 31.4171 11.0212 31.142 10.5298 31.3071C10.0383 31.4171 9.81983 31.8022 9.87444 32.2973C9.87444 32.4623 9.87444 32.6274 9.87444 32.7924C9.87444 35.2129 9.87444 37.5785 9.87444 39.999C9.87444 40.3291 9.60139 40.7692 9.32834 40.9342C9.1099 41.0993 8.61841 41.0443 8.45458 40.8242C8.23614 40.6042 8.07231 40.1641 8.07231 39.834C8.0177 37.3034 8.07231 34.7178 8.07231 32.1873C8.07231 31.9672 8.12692 31.7472 8.12692 31.5271C8.34536 30.3718 9.21912 29.5467 10.3659 29.3816C11.5127 29.2166 12.5503 29.6017 13.0964 30.6469C13.7517 32.0222 14.7893 32.5723 16.2638 32.5723C17.7383 32.6274 19.2673 32.7374 20.851 32.8474C20.851 32.6274 20.851 32.4073 20.851 32.1873C20.851 28.3364 20.851 24.5405 20.851 20.6896C20.851 10.8974 27.6773 2.86559 37.3432 1.54529C43.1865 0.720104 48.3198 2.4805 52.6886 6.38639C53.2347 6.8815 53.2893 7.43163 52.9617 7.87173C52.5794 8.31183 52.0333 8.25682 51.4872 7.81672C48.9205 5.50619 45.9716 4.02085 42.5858 3.47073C34.012 2.09542 25.7113 7.43163 23.4177 15.8485C23.0354 17.2789 22.817 18.8742 22.817 20.3596C22.7078 24.3755 22.7624 28.4464 22.7624 32.4623C22.7624 32.6274 22.7624 32.7374 22.7624 32.8474C23.7454 33.0124 24.6737 33.0675 25.5475 33.3425C26.312 33.6176 26.7489 33.6176 27.4042 33.0124C28.3326 32.0772 29.5886 31.7472 30.8993 31.6921C32.7014 31.6371 34.5581 31.6921 36.3602 31.5271C38.1624 31.3621 39.7461 30.5919 41.0021 29.2166C42.9134 27.1261 42.9681 24.2104 41.0567 22.12C39.5822 20.5246 37.7255 19.7544 35.6503 19.6994C33.2475 19.5894 30.8446 19.6994 28.278 19.6994C28.1142 20.6346 27.9503 21.6249 27.8411 22.6151C27.8411 22.7801 27.8411 22.8901 27.8411 23.0552C27.7865 23.7153 27.4042 24.0454 26.8581 24.0454C26.312 24.0454 25.8751 23.6053 25.9844 23.0002C26.2028 21.4598 26.3666 19.8094 26.8581 18.3241C28.6603 13.2079 32.1007 9.68714 37.3978 8.36684C43.5142 6.8815 49.4666 10.2373 51.8149 16.2336C54.4361 22.8351 52.0879 30.6469 46.19 34.8279C45.0978 35.598 44.2241 36.5883 43.951 37.9636C43.8418 38.4587 43.7872 39.0088 43.7872 39.5039C43.7872 41.8695 43.7872 44.235 43.7872 46.6005C43.7326 51.2216 40.6744 54.9074 36.1418 55.5676C32.5922 56.1177 29.7525 54.7424 27.6227 51.8817C27.1858 51.2766 27.1858 50.7265 27.6773 50.3964C28.1688 50.0663 28.7149 50.1763 29.1517 50.8365C31.3361 53.7522 34.9404 54.6874 38.0532 53.037C40.456 51.7717 41.7666 49.6812 41.8759 46.9856C41.9851 44.5651 41.9305 42.1445 41.8759 39.724C41.8212 37.0284 42.9134 34.8829 45.1525 33.3425C50.0673 29.8217 52.1971 23.3853 50.395 17.774C47.9376 10.1823 39.5276 7.54166 33.2475 12.4378C31.4454 13.8681 30.0255 15.6285 29.0425 17.829C29.3156 17.829 29.534 17.884 29.7525 17.884C31.9915 17.939 34.2305 17.774 36.4149 18.049C39.8553 18.4341 42.5858 20.0845 43.951 23.4953C45.0978 26.3559 44.0056 29.5467 41.3298 31.5821C39.9099 32.6824 38.3262 33.3425 36.5241 33.5626C36.0326 33.6176 35.978 33.7826 35.978 34.2227C35.978 36.2582 35.978 38.2936 35.978 40.3291C35.978 43.4648 33.9574 45.5003 30.8447 45.5003C30.2986 45.5003 29.7525 45.5003 29.2064 45.5003C28.1688 45.5553 27.2404 45.2802 26.5305 44.455C25.9298 44.6201 25.329 44.8401 24.7283 44.9502C24.1276 45.0602 23.4723 45.0602 22.8716 45.1152C22.8716 45.1702 22.817 45.1702 22.817 45.2252C22.8716 48.1959 22.6532 51.2216 23.09 54.0822C23.9638 59.8035 29.261 63.8745 35.1588 63.7644C40.8383 63.6544 45.8078 59.1984 46.5723 53.5871C46.9 51.1116 46.6815 48.636 46.2993 46.1604C45.6439 41.3743 47.0638 37.2484 50.6134 34.0027C53.2347 31.5821 55.3099 28.8315 56.2929 25.3107C57.6581 20.4696 57.0574 15.9036 54.5454 11.6126C54.4907 11.5026 54.4361 11.3925 54.3269 11.2825C53.9993 10.6774 54.0539 10.1272 54.5454 9.85218C55.0368 9.57712 55.5283 9.68714 55.9106 10.2923C56.8936 11.8326 57.6581 13.428 58.095 15.1884C60.0063 22.8351 58.2042 29.4916 52.4156 34.8279C49.3028 37.7435 47.7191 41.1543 48.0468 45.3903C48.156 47.0406 48.429 48.691 48.5383 50.3964C48.7021 52.927 48.3744 55.4025 47.173 57.7131C44.934 62.1691 41.3298 64.8097 36.3602 65.5248C36.251 65.5248 36.1418 65.5798 36.0326 65.6349C35.1588 65.6349 34.2851 65.6349 33.4113 65.6349ZM28.0595 34.9379C30.1347 37.7435 30.0801 40.4941 27.8957 43.2998C28.278 43.4098 28.551 43.5198 28.8787 43.5198C29.534 43.5748 30.1893 43.5198 30.79 43.5198C32.8106 43.5198 34.012 42.3646 34.012 40.2741C34.012 38.2386 34.012 36.2032 34.012 34.1677C34.012 34.0027 34.012 33.7826 33.9574 33.5076C31.9368 33.8376 29.6978 32.9574 28.0595 34.9379Z" fill="#FF7900"/>
</svg>
