<svg width="71" height="75" viewBox="0 0 71 75" fill="none" xmlns="http://www.w3.org/2000/svg">
<path d="M41.3388 6.17925C42.7401 6.69812 43.3473 7.78302 43.4408 9.24529C43.5342 10.8962 43.8144 12.5 44.0013 14.1509C44.048 14.5755 44.1881 14.8113 44.6085 14.9528C45.2625 15.1887 45.8697 15.4245 46.5237 15.7547C46.8974 15.9434 47.1776 15.8962 47.5046 15.6132C48.9059 14.4811 50.3072 13.3962 51.7085 12.2642C53.1098 11.1321 54.4177 11.2264 55.6789 12.5C57.5473 14.3868 59.3691 16.2264 61.2375 18.1132C62.452 19.3868 62.5454 20.7076 61.471 22.0755C60.3967 23.4906 59.2756 24.9057 58.1546 26.3208C57.8743 26.6509 57.8276 26.934 58.0145 27.3585C58.2947 27.9717 58.575 28.5849 58.7618 29.1981C58.902 29.5755 59.1355 29.7642 59.5559 29.8113C61.3776 30 63.1526 30.2359 64.9743 30.4717C66.6092 30.6604 67.5434 31.6981 67.5434 33.3962C67.5434 36.0849 67.5434 38.7736 67.5434 41.4623C67.5434 43.1132 66.6559 44.1509 65.021 44.3396C63.1993 44.5755 61.4243 44.7642 59.6026 45C59.1822 45.0472 58.902 45.2359 58.7618 45.6604C58.5283 46.2736 58.2947 46.934 58.0145 47.5C57.8276 47.8774 57.8743 48.1604 58.1079 48.4906C59.2289 49.9057 60.3033 51.3208 61.4243 52.7359C62.5454 54.1981 62.4987 55.4717 61.1908 56.7925C59.3691 58.6321 57.5006 60.5189 55.6789 62.3585C54.4177 63.6321 53.1098 63.6792 51.7552 62.5943C50.3539 61.4623 48.9059 60.3774 47.5046 59.2453C47.1776 58.9623 46.8974 58.9623 46.5237 59.1509C45.9164 59.434 45.2625 59.717 44.6085 59.9528C44.2348 60.0943 44.0947 60.3302 44.048 60.7075C43.8612 62.5 43.6276 64.2925 43.4408 66.0849C43.2539 67.8302 42.2263 68.7264 40.498 68.7264C37.8355 68.7264 35.2197 68.7264 32.5572 68.7264C30.8756 68.7264 29.848 67.783 29.6612 66.0849C29.4743 64.2925 29.2408 62.5 29.0539 60.7075C29.0072 60.283 28.8204 60.0472 28.4467 59.9057C27.7927 59.6698 27.1855 59.3868 26.5316 59.1038C26.1579 58.9151 25.9243 59.0094 25.5973 59.2453C24.196 60.3774 22.7947 61.5094 21.3467 62.5943C19.9454 63.6792 18.6375 63.6321 17.423 62.3585C15.5546 60.4717 13.6862 58.5849 11.8177 56.6981C10.6033 55.4717 10.5566 54.1509 11.5842 52.783C12.6585 51.3679 13.7796 49.9528 14.9006 48.5377C15.1809 48.1604 15.2743 47.8774 15.0408 47.4528C14.7605 46.8396 14.4802 46.2264 14.2934 45.6132C14.1533 45.1887 13.873 45.0472 13.4993 45C11.8645 44.8113 10.2763 44.5283 8.64143 44.434C7.14669 44.3396 6.11906 43.7264 5.55853 42.3113C5.55853 39.0566 5.55853 35.8019 5.55853 32.5472C6.16577 30.8019 7.56708 30.4717 9.15524 30.3302C10.6033 30.1887 12.098 30 13.546 29.8113C13.9197 29.7642 14.1533 29.5755 14.2934 29.1981C14.527 28.5849 14.7605 27.9245 15.0408 27.3585C15.2743 26.934 15.1809 26.6038 14.9006 26.2736C13.7796 24.9057 12.7052 23.4906 11.6309 22.0755C10.5098 20.6604 10.6033 19.3396 11.8645 18.066C12.2848 17.6415 12.6585 17.2642 13.0789 16.8396C13.546 16.4151 14.0131 16.3679 14.4335 16.7453C14.8072 17.1226 14.8072 17.6415 14.3868 18.1132C13.9664 18.5377 13.546 18.9623 13.1723 19.3868C12.6118 19.9528 12.6118 20.2359 13.0789 20.8491C14.2 22.2642 15.2743 23.7264 16.3954 25.1415C17.1427 26.0849 17.2829 27.0283 16.7691 28.066C16.4888 28.6321 16.2552 29.2453 16.0217 29.8585C15.648 30.8962 14.9006 31.4623 13.8263 31.6038C12.0513 31.7925 10.2763 32.0283 8.50129 32.2642C7.6605 32.3585 7.42695 32.5943 7.42695 33.4434C7.42695 36.0849 7.42695 38.7264 7.42695 41.3679C7.42695 42.217 7.6605 42.4528 8.50129 42.5472C10.2763 42.7358 12.0513 42.9717 13.8263 43.2075C14.9006 43.3491 15.648 43.8679 16.0217 44.9528C16.2552 45.6604 16.5822 46.3208 16.8625 46.9811C17.2362 47.8774 17.1427 48.7264 16.5355 49.4811C15.4145 50.9434 14.2934 52.3585 13.1723 53.8208C12.5651 54.6226 12.5651 54.8113 13.2658 55.5189C15.0875 57.3585 16.9092 59.1981 18.7309 61.0377C19.3381 61.6509 19.6184 61.6981 20.2723 61.1321C21.7204 60 23.1217 58.8679 24.5697 57.7359C25.4105 57.0283 26.298 56.934 27.2789 57.4057C27.9796 57.7358 28.727 58.0189 29.4743 58.3019C30.2217 58.6321 30.7355 59.1981 30.8289 60.0472C31.0625 61.934 31.296 63.8679 31.5296 65.7547C31.623 66.6981 31.8566 66.8868 32.7441 66.8868C35.3598 66.8868 37.9289 66.8868 40.5447 66.8868C41.3855 66.8868 41.6191 66.6509 41.7125 65.8019C41.8993 64.0094 42.1329 62.217 42.3664 60.4245C42.5066 59.3396 43.0204 58.5849 44.0947 58.2076C44.7487 57.9717 45.3559 57.6887 46.0098 57.4057C46.9908 56.934 47.8783 57.0755 48.7191 57.7359C50.1204 58.8679 51.5217 59.9528 52.923 61.0849C53.7171 61.6981 53.9506 61.6981 54.6046 60.9906C56.4263 59.1509 58.248 57.3113 60.023 55.5189C60.7237 54.8113 60.7237 54.6226 60.1164 53.8208C59.0421 52.4057 57.9677 51.0377 56.8467 49.6226C56.146 48.7264 56.0059 47.8302 56.5197 46.7925C56.8 46.1792 57.0802 45.566 57.2671 44.9528C57.6408 43.9151 58.3881 43.3491 59.4625 43.2075C61.2375 43.0189 63.0125 42.783 64.7875 42.5472C65.6283 42.4528 65.8618 42.217 65.8618 41.3679C65.8618 38.7264 65.8618 36.0849 65.8618 33.4434C65.8618 32.5943 65.6283 32.3585 64.7875 32.2642C63.0125 32.0755 61.2375 31.8396 59.4625 31.6038C58.3881 31.4623 57.6408 30.9434 57.2671 29.8585C57.0335 29.1509 56.7066 28.4906 56.4263 27.8302C56.0526 26.934 56.146 26.0849 56.7533 25.3302C57.8743 23.8679 59.0421 22.4057 60.1631 20.9434C60.7237 20.1887 60.7237 19.9528 60.0697 19.2925C58.248 17.4528 56.4263 15.6132 54.6046 13.7736C53.9506 13.1132 53.7171 13.1132 53.0164 13.6792C51.6151 14.7642 50.2138 15.8962 48.8125 17.0283C47.925 17.7359 47.0375 17.8774 46.0098 17.4057C45.3559 17.0755 44.6552 16.8396 43.9546 16.5566C43.1605 16.2264 42.6467 15.6132 42.5066 14.7642C42.273 12.8774 42.0395 10.9434 41.8059 9.05661C41.7125 8.20755 41.4789 7.9717 40.6381 7.9717C38.0223 7.9717 35.4066 7.9717 32.7908 7.9717C31.95 7.9717 31.7164 8.20755 31.623 9.05661C31.4362 10.8491 31.2026 12.6415 30.9691 14.434C30.8289 15.5189 30.3151 16.2736 29.2408 16.6509C28.5401 16.8868 27.8862 17.217 27.2322 17.5C26.3447 17.8774 25.5039 17.783 24.7566 17.1698C23.3085 16.0377 21.8605 14.8585 20.4125 13.7264C19.6651 13.1604 19.4316 13.1604 18.7776 13.8208C18.4039 14.1981 18.0302 14.6226 17.6098 15C17.1895 15.4245 16.6289 15.4245 16.2552 15.0472C15.8816 14.6698 15.8816 14.1509 16.3487 13.6792C16.7691 13.2076 17.2362 12.783 17.6566 12.3585C18.7776 11.2736 20.1322 11.1792 21.3467 12.1698C22.748 13.3019 24.196 14.3868 25.5973 15.5189C25.971 15.8491 26.298 15.9434 26.8118 15.6604C27.3723 15.3774 27.9796 15.1415 28.5868 14.9057C28.9605 14.7642 29.1473 14.5283 29.1941 14.1509C29.3809 12.3585 29.6145 10.566 29.8013 8.77359C29.9414 7.40567 30.6421 6.60378 31.8566 6.13208C34.8927 6.17925 38.1158 6.17925 41.3388 6.17925Z" fill="#FF7900"/>
<path d="M32.4638 51.3679C32.4638 50.8018 32.4638 50.3301 32.4638 49.8584C32.4638 49.2924 32.7908 48.9622 33.3046 48.915C33.8184 48.8679 34.1921 49.2452 34.2388 49.8113C34.2855 50.2358 34.2855 50.7075 34.2388 51.132C34.1921 51.6981 34.4257 51.8867 34.8928 51.8396C35.0796 51.8396 35.2665 51.8396 35.5 51.8396C35.5 51.6037 35.5467 51.415 35.5467 51.1792C35.5467 49.7641 35.5467 48.349 35.5467 46.9811C35.5467 46.2264 35.8737 45.849 36.4342 45.849C36.9947 45.849 37.3217 46.2264 37.3217 46.9811C37.3217 48.5848 37.3217 50.1886 37.3217 51.8396C37.5086 51.8396 37.6487 51.8396 37.8355 51.8867C38.4428 51.9339 38.6763 51.6981 38.6296 51.0377C38.5829 48.632 38.6296 46.2735 38.6296 43.8679C38.6296 43.632 38.6296 43.4433 38.6296 43.3018C37.1349 43.3018 35.7336 43.3018 34.2388 43.3018C34.2388 43.915 34.2855 44.6226 34.2388 45.283C34.1921 45.6131 34.0987 45.9905 33.8651 46.1792C33.6783 46.3679 33.2112 46.415 32.9776 46.2735C32.7441 46.132 32.4638 45.7547 32.4638 45.4716C32.3704 44.6698 32.4171 43.8207 32.4638 43.0188C32.4638 42.5471 32.3237 42.3113 31.9033 42.0754C26.1112 38.7264 25.7842 30.3301 31.3428 26.5094C31.95 26.0848 32.604 25.849 33.3046 26.2264C34.0053 26.6037 34.1454 27.2641 34.1454 27.9716C34.1454 29.4811 34.1454 30.9433 34.1454 32.4528C34.1454 32.7358 34.2855 33.0188 34.4724 33.2547C35.0796 33.915 35.6869 34.5282 36.3408 35.2358C37.1349 34.4811 37.8355 33.7735 38.5362 33.066C38.6763 32.9245 38.6763 32.6414 38.6763 32.4528C38.6763 30.9433 38.6763 29.4339 38.6763 27.9245C38.6763 27.1697 38.8632 26.6037 39.5171 26.2264C40.1711 25.8962 40.7783 26.0377 41.3855 26.4622C46.9908 30.1886 46.7572 38.632 40.9651 42.0282C40.498 42.3113 40.3579 42.5471 40.4046 43.066C40.4513 45.5188 40.4046 48.0188 40.4046 50.4716C40.4046 50.7075 40.4046 50.8962 40.4046 51.2264C40.7316 51.132 40.9651 51.0848 41.1987 50.9905C50.0737 47.8301 53.5303 36.9811 48.252 29.1509C48.1118 28.9622 47.9717 28.7735 47.8783 28.5848C47.6915 28.1131 47.7849 27.7358 48.2053 27.4528C48.5789 27.1697 48.9526 27.2169 49.3263 27.5471C49.4665 27.6414 49.5132 27.783 49.6066 27.9245C56.1928 37.2169 51.1947 50.6132 40.1243 53.2075C30.9691 55.3301 22.0941 49.4811 20.4125 40.1414C18.7776 31.1792 25.0836 22.4056 34.052 21.1792C38.4428 20.566 42.4599 21.6037 46.0099 24.2452C46.2901 24.4811 46.5704 24.8584 46.5704 25.2358C46.6171 25.849 45.9165 26.2264 45.3559 25.9905C45.1691 25.8962 45.029 25.8018 44.8421 25.6603C35.9671 19.1037 23.402 24.5282 22.0474 35.566C21.2066 42.3584 25.3638 49.0094 31.8099 51.0849C32.0901 51.3207 32.2303 51.3207 32.4638 51.3679ZM40.5914 28.3018C40.5914 29.9528 40.6382 31.4622 40.5447 33.0188C40.5447 33.4905 40.3112 34.0565 39.9842 34.4339C39.2369 35.283 38.3961 36.0377 37.5553 36.7924C36.8079 37.4999 35.9671 37.4999 35.173 36.7452C34.6125 36.1792 34.052 35.566 33.4447 35.0471C32.5572 34.2924 32.2303 33.4433 32.277 32.2641C32.3704 30.9905 32.277 29.6697 32.277 28.349C30.0349 29.4811 28.6336 32.9716 29.2875 35.8962C29.9882 39.1037 32.8375 41.5565 36.1072 41.6509C39.4237 41.7924 42.4132 39.6226 43.3941 36.415C44.375 33.3962 43.1605 29.9056 40.5914 28.3018Z" fill="#FF7900"/>
</svg>
