<svg width="176" height="89" viewBox="0 0 176 89" fill="none" xmlns="http://www.w3.org/2000/svg">
<path fill-rule="evenodd" clip-rule="evenodd" d="M6 9C6 10.6575 4.6575 12 3 12C1.3425 12 0 10.6575 0 9C0 7.3425 1.3425 6 3 6C4.6575 6 6 7.3425 6 9Z" fill="white" fill-opacity="0.12"/>
<path fill-rule="evenodd" clip-rule="evenodd" d="M22 9C22 10.6575 20.6575 12 19 12C17.3425 12 16 10.6575 16 9C16 7.3425 17.3425 6 19 6C20.6575 6 22 7.3425 22 9Z" fill="white" fill-opacity="0.12"/>
<path fill-rule="evenodd" clip-rule="evenodd" d="M37 9C37 10.6575 35.6575 12 34 12C32.3425 12 31 10.6575 31 9C31 7.3425 32.3425 6 34 6C35.6575 6 37 7.3425 37 9Z" fill="white" fill-opacity="0.12"/>
<path fill-rule="evenodd" clip-rule="evenodd" d="M52 9C52 10.6575 50.6575 12 49 12C47.3425 12 46 10.6575 46 9C46 7.3425 47.3425 6 49 6C50.6575 6 52 7.3425 52 9Z" fill="white" fill-opacity="0.12"/>
<path fill-rule="evenodd" clip-rule="evenodd" d="M68 9C68 10.6575 66.6575 12 65 12C63.3425 12 62 10.6575 62 9C62 7.3425 63.3425 6 65 6C66.6575 6 68 7.3425 68 9Z" fill="white" fill-opacity="0.12"/>
<path fill-rule="evenodd" clip-rule="evenodd" d="M83 9C83 10.6575 81.6575 12 80 12C78.3425 12 77 10.6575 77 9C77 7.3425 78.3425 6 80 6C81.6575 6 83 7.3425 83 9Z" fill="white" fill-opacity="0.12"/>
<path fill-rule="evenodd" clip-rule="evenodd" d="M99 9C99 10.6575 97.6575 12 96 12C94.3425 12 93 10.6575 93 9C93 7.3425 94.3425 6 96 6C97.6575 6 99 7.3425 99 9Z" fill="white" fill-opacity="0.12"/>
<path fill-rule="evenodd" clip-rule="evenodd" d="M114 9C114 10.6575 112.658 12 111 12C109.342 12 108 10.6575 108 9C108 7.3425 109.342 6 111 6C112.658 6 114 7.3425 114 9Z" fill="white" fill-opacity="0.12"/>
<path fill-rule="evenodd" clip-rule="evenodd" d="M130 9C130 10.6575 128.658 12 127 12C125.342 12 124 10.6575 124 9C124 7.3425 125.342 6 127 6C128.658 6 130 7.3425 130 9Z" fill="white" fill-opacity="0.12"/>
<path fill-rule="evenodd" clip-rule="evenodd" d="M145 9C145 10.6575 143.658 12 142 12C140.342 12 139 10.6575 139 9C139 7.3425 140.342 6 142 6C143.658 6 145 7.3425 145 9Z" fill="white" fill-opacity="0.12"/>
<path fill-rule="evenodd" clip-rule="evenodd" d="M160 9C160 10.6575 158.658 12 157 12C155.342 12 154 10.6575 154 9C154 7.3425 155.342 6 157 6C158.658 6 160 7.3425 160 9Z" fill="white" fill-opacity="0.12"/>
<path fill-rule="evenodd" clip-rule="evenodd" d="M176 9C176 10.6575 174.658 12 173 12C171.342 12 170 10.6575 170 9C170 7.3425 171.342 6 173 6C174.658 6 176 7.3425 176 9Z" fill="white" fill-opacity="0.12"/>
<path fill-rule="evenodd" clip-rule="evenodd" d="M6 24C6 25.6575 4.6575 27 3 27C1.3425 27 0 25.6575 0 24C0 22.3425 1.3425 21 3 21C4.6575 21 6 22.3425 6 24Z" fill="white" fill-opacity="0.12"/>
<path fill-rule="evenodd" clip-rule="evenodd" d="M22 24C22 25.6575 20.6575 27 19 27C17.3425 27 16 25.6575 16 24C16 22.3425 17.3425 21 19 21C20.6575 21 22 22.3425 22 24Z" fill="white" fill-opacity="0.12"/>
<path fill-rule="evenodd" clip-rule="evenodd" d="M37 24C37 25.6575 35.6575 27 34 27C32.3425 27 31 25.6575 31 24C31 22.3425 32.3425 21 34 21C35.6575 21 37 22.3425 37 24Z" fill="white" fill-opacity="0.12"/>
<path fill-rule="evenodd" clip-rule="evenodd" d="M52 24C52 25.6575 50.6575 27 49 27C47.3425 27 46 25.6575 46 24C46 22.3425 47.3425 21 49 21C50.6575 21 52 22.3425 52 24Z" fill="white" fill-opacity="0.12"/>
<path fill-rule="evenodd" clip-rule="evenodd" d="M68 24C68 25.6575 66.6575 27 65 27C63.3425 27 62 25.6575 62 24C62 22.3425 63.3425 21 65 21C66.6575 21 68 22.3425 68 24Z" fill="white" fill-opacity="0.12"/>
<path fill-rule="evenodd" clip-rule="evenodd" d="M83 24C83 25.6575 81.6575 27 80 27C78.3425 27 77 25.6575 77 24C77 22.3425 78.3425 21 80 21C81.6575 21 83 22.3425 83 24Z" fill="white" fill-opacity="0.12"/>
<path fill-rule="evenodd" clip-rule="evenodd" d="M99 24C99 25.6575 97.6575 27 96 27C94.3425 27 93 25.6575 93 24C93 22.3425 94.3425 21 96 21C97.6575 21 99 22.3425 99 24Z" fill="white" fill-opacity="0.12"/>
<path fill-rule="evenodd" clip-rule="evenodd" d="M114 24C114 25.6575 112.658 27 111 27C109.342 27 108 25.6575 108 24C108 22.3425 109.342 21 111 21C112.658 21 114 22.3425 114 24Z" fill="white" fill-opacity="0.12"/>
<path fill-rule="evenodd" clip-rule="evenodd" d="M130 24C130 25.6575 128.658 27 127 27C125.342 27 124 25.6575 124 24C124 22.3425 125.342 21 127 21C128.658 21 130 22.3425 130 24Z" fill="white" fill-opacity="0.12"/>
<path fill-rule="evenodd" clip-rule="evenodd" d="M145 24C145 25.6575 143.658 27 142 27C140.342 27 139 25.6575 139 24C139 22.3425 140.342 21 142 21C143.658 21 145 22.3425 145 24Z" fill="white" fill-opacity="0.12"/>
<path fill-rule="evenodd" clip-rule="evenodd" d="M160 24C160 25.6575 158.658 27 157 27C155.342 27 154 25.6575 154 24C154 22.3425 155.342 21 157 21C158.658 21 160 22.3425 160 24Z" fill="white" fill-opacity="0.12"/>
<path fill-rule="evenodd" clip-rule="evenodd" d="M176 24C176 25.6575 174.658 27 173 27C171.342 27 170 25.6575 170 24C170 22.3425 171.342 21 173 21C174.658 21 176 22.3425 176 24Z" fill="white" fill-opacity="0.12"/>
<path fill-rule="evenodd" clip-rule="evenodd" d="M6 40C6 41.6575 4.6575 43 3 43C1.3425 43 0 41.6575 0 40C0 38.3425 1.3425 37 3 37C4.6575 37 6 38.3425 6 40Z" fill="white" fill-opacity="0.12"/>
<path fill-rule="evenodd" clip-rule="evenodd" d="M22 40C22 41.6575 20.6575 43 19 43C17.3425 43 16 41.6575 16 40C16 38.3425 17.3425 37 19 37C20.6575 37 22 38.3425 22 40Z" fill="white" fill-opacity="0.12"/>
<path fill-rule="evenodd" clip-rule="evenodd" d="M37 40C37 41.6575 35.6575 43 34 43C32.3425 43 31 41.6575 31 40C31 38.3425 32.3425 37 34 37C35.6575 37 37 38.3425 37 40Z" fill="white" fill-opacity="0.12"/>
<path fill-rule="evenodd" clip-rule="evenodd" d="M52 40C52 41.6575 50.6575 43 49 43C47.3425 43 46 41.6575 46 40C46 38.3425 47.3425 37 49 37C50.6575 37 52 38.3425 52 40Z" fill="white" fill-opacity="0.12"/>
<path fill-rule="evenodd" clip-rule="evenodd" d="M68 40C68 41.6575 66.6575 43 65 43C63.3425 43 62 41.6575 62 40C62 38.3425 63.3425 37 65 37C66.6575 37 68 38.3425 68 40Z" fill="white" fill-opacity="0.12"/>
<path fill-rule="evenodd" clip-rule="evenodd" d="M83 40C83 41.6575 81.6575 43 80 43C78.3425 43 77 41.6575 77 40C77 38.3425 78.3425 37 80 37C81.6575 37 83 38.3425 83 40Z" fill="white" fill-opacity="0.12"/>
<path fill-rule="evenodd" clip-rule="evenodd" d="M99 40C99 41.6575 97.6575 43 96 43C94.3425 43 93 41.6575 93 40C93 38.3425 94.3425 37 96 37C97.6575 37 99 38.3425 99 40Z" fill="white" fill-opacity="0.12"/>
<path fill-rule="evenodd" clip-rule="evenodd" d="M114 40C114 41.6575 112.658 43 111 43C109.342 43 108 41.6575 108 40C108 38.3425 109.342 37 111 37C112.658 37 114 38.3425 114 40Z" fill="white" fill-opacity="0.12"/>
<path fill-rule="evenodd" clip-rule="evenodd" d="M130 40C130 41.6575 128.658 43 127 43C125.342 43 124 41.6575 124 40C124 38.3425 125.342 37 127 37C128.658 37 130 38.3425 130 40Z" fill="white" fill-opacity="0.12"/>
<path fill-rule="evenodd" clip-rule="evenodd" d="M145 40C145 41.6575 143.658 43 142 43C140.342 43 139 41.6575 139 40C139 38.3425 140.342 37 142 37C143.658 37 145 38.3425 145 40Z" fill="white" fill-opacity="0.12"/>
<path fill-rule="evenodd" clip-rule="evenodd" d="M160 40C160 41.6575 158.658 43 157 43C155.342 43 154 41.6575 154 40C154 38.3425 155.342 37 157 37C158.658 37 160 38.3425 160 40Z" fill="white" fill-opacity="0.12"/>
<path fill-rule="evenodd" clip-rule="evenodd" d="M176 40C176 41.6575 174.658 43 173 43C171.342 43 170 41.6575 170 40C170 38.3425 171.342 37 173 37C174.658 37 176 38.3425 176 40Z" fill="white" fill-opacity="0.12"/>
<path fill-rule="evenodd" clip-rule="evenodd" d="M6 55C6 56.6575 4.6575 58 3 58C1.3425 58 0 56.6575 0 55C0 53.3425 1.3425 52 3 52C4.6575 52 6 53.3425 6 55Z" fill="white" fill-opacity="0.12"/>
<path fill-rule="evenodd" clip-rule="evenodd" d="M22 55C22 56.6575 20.6575 58 19 58C17.3425 58 16 56.6575 16 55C16 53.3425 17.3425 52 19 52C20.6575 52 22 53.3425 22 55Z" fill="white" fill-opacity="0.12"/>
<path fill-rule="evenodd" clip-rule="evenodd" d="M37 55C37 56.6575 35.6575 58 34 58C32.3425 58 31 56.6575 31 55C31 53.3425 32.3425 52 34 52C35.6575 52 37 53.3425 37 55Z" fill="white" fill-opacity="0.12"/>
<path fill-rule="evenodd" clip-rule="evenodd" d="M52 55C52 56.6575 50.6575 58 49 58C47.3425 58 46 56.6575 46 55C46 53.3425 47.3425 52 49 52C50.6575 52 52 53.3425 52 55Z" fill="white" fill-opacity="0.12"/>
<path fill-rule="evenodd" clip-rule="evenodd" d="M68 55C68 56.6575 66.6575 58 65 58C63.3425 58 62 56.6575 62 55C62 53.3425 63.3425 52 65 52C66.6575 52 68 53.3425 68 55Z" fill="white" fill-opacity="0.12"/>
<path fill-rule="evenodd" clip-rule="evenodd" d="M83 55C83 56.6575 81.6575 58 80 58C78.3425 58 77 56.6575 77 55C77 53.3425 78.3425 52 80 52C81.6575 52 83 53.3425 83 55Z" fill="white" fill-opacity="0.12"/>
<path fill-rule="evenodd" clip-rule="evenodd" d="M99 55C99 56.6575 97.6575 58 96 58C94.3425 58 93 56.6575 93 55C93 53.3425 94.3425 52 96 52C97.6575 52 99 53.3425 99 55Z" fill="white" fill-opacity="0.12"/>
<path fill-rule="evenodd" clip-rule="evenodd" d="M114 55C114 56.6575 112.658 58 111 58C109.342 58 108 56.6575 108 55C108 53.3425 109.342 52 111 52C112.658 52 114 53.3425 114 55Z" fill="white" fill-opacity="0.12"/>
<path fill-rule="evenodd" clip-rule="evenodd" d="M130 55C130 56.6575 128.658 58 127 58C125.342 58 124 56.6575 124 55C124 53.3425 125.342 52 127 52C128.658 52 130 53.3425 130 55Z" fill="white" fill-opacity="0.12"/>
<path fill-rule="evenodd" clip-rule="evenodd" d="M145 55C145 56.6575 143.658 58 142 58C140.342 58 139 56.6575 139 55C139 53.3425 140.342 52 142 52C143.658 52 145 53.3425 145 55Z" fill="white" fill-opacity="0.12"/>
<path fill-rule="evenodd" clip-rule="evenodd" d="M160 55C160 56.6575 158.658 58 157 58C155.342 58 154 56.6575 154 55C154 53.3425 155.342 52 157 52C158.658 52 160 53.3425 160 55Z" fill="white" fill-opacity="0.12"/>
<path fill-rule="evenodd" clip-rule="evenodd" d="M176 55C176 56.6575 174.658 58 173 58C171.342 58 170 56.6575 170 55C170 53.3425 171.342 52 173 52C174.658 52 176 53.3425 176 55Z" fill="white" fill-opacity="0.12"/>
<path fill-rule="evenodd" clip-rule="evenodd" d="M6 71C6 72.6575 4.6575 74 3 74C1.3425 74 0 72.6575 0 71C0 69.3425 1.3425 68 3 68C4.6575 68 6 69.3425 6 71Z" fill="white" fill-opacity="0.12"/>
<path fill-rule="evenodd" clip-rule="evenodd" d="M22 71C22 72.6575 20.6575 74 19 74C17.3425 74 16 72.6575 16 71C16 69.3425 17.3425 68 19 68C20.6575 68 22 69.3425 22 71Z" fill="white" fill-opacity="0.12"/>
<path fill-rule="evenodd" clip-rule="evenodd" d="M37 71C37 72.6575 35.6575 74 34 74C32.3425 74 31 72.6575 31 71C31 69.3425 32.3425 68 34 68C35.6575 68 37 69.3425 37 71Z" fill="white" fill-opacity="0.12"/>
<path fill-rule="evenodd" clip-rule="evenodd" d="M52 71C52 72.6575 50.6575 74 49 74C47.3425 74 46 72.6575 46 71C46 69.3425 47.3425 68 49 68C50.6575 68 52 69.3425 52 71Z" fill="white" fill-opacity="0.12"/>
<path fill-rule="evenodd" clip-rule="evenodd" d="M68 71C68 72.6575 66.6575 74 65 74C63.3425 74 62 72.6575 62 71C62 69.3425 63.3425 68 65 68C66.6575 68 68 69.3425 68 71Z" fill="white" fill-opacity="0.12"/>
<path fill-rule="evenodd" clip-rule="evenodd" d="M83 71C83 72.6575 81.6575 74 80 74C78.3425 74 77 72.6575 77 71C77 69.3425 78.3425 68 80 68C81.6575 68 83 69.3425 83 71Z" fill="white" fill-opacity="0.12"/>
<path fill-rule="evenodd" clip-rule="evenodd" d="M99 71C99 72.6575 97.6575 74 96 74C94.3425 74 93 72.6575 93 71C93 69.3425 94.3425 68 96 68C97.6575 68 99 69.3425 99 71Z" fill="white" fill-opacity="0.12"/>
<path fill-rule="evenodd" clip-rule="evenodd" d="M114 71C114 72.6575 112.658 74 111 74C109.342 74 108 72.6575 108 71C108 69.3425 109.342 68 111 68C112.658 68 114 69.3425 114 71Z" fill="white" fill-opacity="0.12"/>
<path fill-rule="evenodd" clip-rule="evenodd" d="M130 71C130 72.6575 128.658 74 127 74C125.342 74 124 72.6575 124 71C124 69.3425 125.342 68 127 68C128.658 68 130 69.3425 130 71Z" fill="white" fill-opacity="0.12"/>
<path fill-rule="evenodd" clip-rule="evenodd" d="M145 71C145 72.6575 143.658 74 142 74C140.342 74 139 72.6575 139 71C139 69.3425 140.342 68 142 68C143.658 68 145 69.3425 145 71Z" fill="white" fill-opacity="0.12"/>
<path fill-rule="evenodd" clip-rule="evenodd" d="M160 71C160 72.6575 158.658 74 157 74C155.342 74 154 72.6575 154 71C154 69.3425 155.342 68 157 68C158.658 68 160 69.3425 160 71Z" fill="white" fill-opacity="0.12"/>
<path fill-rule="evenodd" clip-rule="evenodd" d="M176 71C176 72.6575 174.658 74 173 74C171.342 74 170 72.6575 170 71C170 69.3425 171.342 68 173 68C174.658 68 176 69.3425 176 71Z" fill="white" fill-opacity="0.12"/>
<path fill-rule="evenodd" clip-rule="evenodd" d="M6 86C6 87.6575 4.6575 89 3 89C1.3425 89 0 87.6575 0 86C0 84.3425 1.3425 83 3 83C4.6575 83 6 84.3425 6 86Z" fill="white" fill-opacity="0.12"/>
<path fill-rule="evenodd" clip-rule="evenodd" d="M22 86C22 87.6575 20.6575 89 19 89C17.3425 89 16 87.6575 16 86C16 84.3425 17.3425 83 19 83C20.6575 83 22 84.3425 22 86Z" fill="white" fill-opacity="0.12"/>
<path fill-rule="evenodd" clip-rule="evenodd" d="M37 86C37 87.6575 35.6575 89 34 89C32.3425 89 31 87.6575 31 86C31 84.3425 32.3425 83 34 83C35.6575 83 37 84.3425 37 86Z" fill="white" fill-opacity="0.12"/>
<path fill-rule="evenodd" clip-rule="evenodd" d="M52 86C52 87.6575 50.6575 89 49 89C47.3425 89 46 87.6575 46 86C46 84.3425 47.3425 83 49 83C50.6575 83 52 84.3425 52 86Z" fill="white" fill-opacity="0.12"/>
<path fill-rule="evenodd" clip-rule="evenodd" d="M68 86C68 87.6575 66.6575 89 65 89C63.3425 89 62 87.6575 62 86C62 84.3425 63.3425 83 65 83C66.6575 83 68 84.3425 68 86Z" fill="white" fill-opacity="0.12"/>
<path fill-rule="evenodd" clip-rule="evenodd" d="M83 86C83 87.6575 81.6575 89 80 89C78.3425 89 77 87.6575 77 86C77 84.3425 78.3425 83 80 83C81.6575 83 83 84.3425 83 86Z" fill="white" fill-opacity="0.12"/>
<path fill-rule="evenodd" clip-rule="evenodd" d="M99 86C99 87.6575 97.6575 89 96 89C94.3425 89 93 87.6575 93 86C93 84.3425 94.3425 83 96 83C97.6575 83 99 84.3425 99 86Z" fill="white" fill-opacity="0.12"/>
<path fill-rule="evenodd" clip-rule="evenodd" d="M114 86C114 87.6575 112.658 89 111 89C109.342 89 108 87.6575 108 86C108 84.3425 109.342 83 111 83C112.658 83 114 84.3425 114 86Z" fill="white" fill-opacity="0.12"/>
<path fill-rule="evenodd" clip-rule="evenodd" d="M130 86C130 87.6575 128.658 89 127 89C125.342 89 124 87.6575 124 86C124 84.3425 125.342 83 127 83C128.658 83 130 84.3425 130 86Z" fill="white" fill-opacity="0.12"/>
<path fill-rule="evenodd" clip-rule="evenodd" d="M145 86C145 87.6575 143.658 89 142 89C140.342 89 139 87.6575 139 86C139 84.3425 140.342 83 142 83C143.658 83 145 84.3425 145 86Z" fill="white" fill-opacity="0.12"/>
<path fill-rule="evenodd" clip-rule="evenodd" d="M160 86C160 87.6575 158.658 89 157 89C155.342 89 154 87.6575 154 86C154 84.3425 155.342 83 157 83C158.658 83 160 84.3425 160 86Z" fill="white" fill-opacity="0.12"/>
<path fill-rule="evenodd" clip-rule="evenodd" d="M176 86C176 87.6575 174.658 89 173 89C171.342 89 170 87.6575 170 86C170 84.3425 171.342 83 173 83C174.658 83 176 84.3425 176 86Z" fill="white" fill-opacity="0.12"/>
</svg>
