<svg width="10" height="16" viewBox="0 0 10 16" fill="none" xmlns="http://www.w3.org/2000/svg">
<path d="M8.99934 0.00332907L6.92452 0C4.59353 0 3.08714 1.54552 3.08714 3.93762V5.75313H1.001C0.820737 5.75313 0.674759 5.89927 0.674759 6.07954V8.71001C0.674759 8.89028 0.820904 9.03625 1.001 9.03625H3.08714V15.6738C3.08714 15.854 3.23312 16 3.41339 16H6.13521C6.31547 16 6.46145 15.8539 6.46145 15.6738V9.03625H8.90063C9.0809 9.03625 9.22688 8.89028 9.22688 8.71001L9.22788 6.07954C9.22788 5.99299 9.19342 5.91009 9.13233 5.84884C9.07125 5.78758 8.98802 5.75313 8.90147 5.75313H6.46145V4.2141C6.46145 3.47438 6.63772 3.09886 7.60131 3.09886L8.99901 3.09836C9.17911 3.09836 9.32508 2.95222 9.32508 2.77211V0.329578C9.32508 0.149642 9.17927 0.00366197 8.99934 0.00332907Z" fill="#4267B2"/>
</svg>
