<svg width="16" height="16" viewBox="0 0 16 16" fill="none" xmlns="http://www.w3.org/2000/svg">
<g clip-path="url(#clip0_118_14)">
<path d="M0.0480957 4.70166C0.0870361 3.8501 0.22229 3.26855 0.420044 2.75977C0.62085 2.22595 0.935791 1.74243 1.34277 1.34277C1.74231 0.935791 2.22595 0.620728 2.75977 0.4198C3.26868 0.222168 3.8501 0.0870361 4.70166 0.0483398C5.55481 0.00927734 5.82739 0 8 0C10.1726 0 10.4452 0.00927734 11.2983 0.0480957C12.1499 0.0870361 12.7313 0.22229 13.2402 0.420044C13.774 0.62085 14.2576 0.935791 14.6572 1.34277C15.0642 1.74231 15.3793 2.22583 15.5802 2.75964C15.7778 3.26855 15.913 3.8501 15.9517 4.70154C15.9907 5.55481 16 5.82727 16 7.99988C16 10.1726 15.9907 10.4452 15.9517 11.2983C15.9128 12.1498 15.7776 12.7313 15.5798 13.2402C15.379 13.7739 15.0641 14.2576 14.6571 14.6571C14.2576 15.0641 13.7739 15.379 13.2401 15.5798C12.7313 15.7777 12.1498 15.9128 11.2982 15.9518C10.4449 15.9907 10.1725 15.9999 7.99988 15.9999C5.82727 15.9999 5.55469 15.9907 4.70154 15.9518C3.84998 15.9128 3.26855 15.7777 2.75964 15.5798C1.68506 15.1643 0.835571 14.3148 0.420044 13.2402C0.222168 12.7313 0.0870361 12.1498 0.0480957 11.2983C0.00927734 10.4451 0 10.1726 0 8C0 5.82727 0.00927734 5.55481 0.0480957 4.70166ZM1.48816 11.2328C1.52368 12.0128 1.65405 12.4364 1.76355 12.7183C2.03271 13.416 2.58411 13.9674 3.28186 14.2366C3.56372 14.3461 3.9873 14.4764 4.76733 14.512C5.61072 14.5505 5.86377 14.5586 8 14.5586C10.1364 14.5586 10.3893 14.5505 11.2328 14.512C12.0127 14.4764 12.4363 14.3461 12.7183 14.2366C13.0657 14.1083 13.38 13.9038 13.6381 13.6381C13.9038 13.38 14.1083 13.0658 14.2366 12.7183C14.3461 12.4364 14.4764 12.0128 14.512 11.2328C14.5504 10.3893 14.5586 10.1362 14.5586 8.00012C14.5586 5.86389 14.5504 5.61096 14.512 4.76733C14.4763 3.9873 14.3461 3.56372 14.2366 3.28186C14.1083 2.93433 13.9037 2.62 13.6381 2.36194C13.38 2.09619 13.0657 1.89172 12.7181 1.76355C12.4363 1.65393 12.0127 1.52368 11.2327 1.48804C10.3892 1.44958 10.1361 1.44141 8 1.44141H8.00012C5.86401 1.44141 5.61096 1.44958 4.76733 1.48816C3.9873 1.52368 3.56384 1.65405 3.28186 1.76355C2.93445 1.89185 2.62012 2.09631 2.36206 2.36194C2.09631 2.62 1.89185 2.93433 1.76367 3.28186C1.65405 3.56372 1.52368 3.9873 1.48816 4.76733C1.44971 5.61084 1.44153 5.86389 1.44153 8C1.44153 10.1362 1.44958 10.3892 1.48816 11.2328Z" fill="#FF7900"/>
<path d="M8.00012 3.8916C10.2689 3.8916 12.1082 5.73096 12.1082 7.99976C12.1082 10.2686 10.2689 12.1078 8.00012 12.1078C5.7312 12.1078 3.89197 10.2686 3.89197 7.99976C3.89197 5.73096 5.7312 3.8916 8.00012 3.8916ZM8.00012 10.6664C9.47278 10.6663 10.6667 9.47241 10.6666 7.99963C10.6666 6.52698 9.47278 5.33301 8 5.33301C6.52722 5.33313 5.33337 6.52698 5.33337 7.99963C5.33337 9.47241 6.52734 10.6664 8.00012 10.6664Z" fill="#FF7900"/>
<path d="M2.76965 3.72961C2.76965 4.25977 3.19946 4.68958 3.72961 4.68958C4.25989 4.68958 4.6897 4.25977 4.6897 3.72961C4.6897 3.19934 4.25989 2.76953 3.72961 2.76953C3.19946 2.76953 2.76965 3.19934 2.76965 3.72961Z" fill="#FF7900"/>
</g>
<defs>
<clipPath id="clip0_118_14">
<rect width="16" height="16" fill="white" transform="matrix(-1 0 0 1 16 0)"/>
</clipPath>
</defs>
</svg>
