<svg width="20" height="18" viewBox="0 0 20 18" fill="none" xmlns="http://www.w3.org/2000/svg">
<path d="M9.99936 17.8235C9.62915 17.8235 9.27576 17.7078 8.97707 17.4888C6.94931 16.0054 2.1029 12.3155 0.887088 10.0801C-0.703142 7.15882 0.251837 3.40697 3.0116 1.71699C3.90348 1.17156 4.91315 0.882324 5.93964 0.882324C7.47518 0.882324 8.91817 1.50212 9.99936 2.60537C11.0805 1.50212 12.5235 0.882324 14.0591 0.882324C15.0856 0.882324 16.0952 1.17156 16.9871 1.71699C19.7469 3.40697 20.7019 7.15882 19.1158 10.0801C17.9 12.3155 13.0536 16.0054 11.0259 17.4888C10.723 17.7078 10.3696 17.8235 9.99936 17.8235ZM5.93964 2.12192C5.14874 2.12192 4.37045 2.34505 3.68051 2.76651C1.47186 4.12181 0.714603 7.13816 1.99772 9.4934C3.12519 11.5677 8.19878 15.3774 9.72591 16.493C9.88577 16.6087 10.1087 16.6087 10.2686 16.493C11.7957 15.3732 16.8693 11.5635 17.9968 9.4934C19.2799 7.13816 18.5227 4.11768 16.314 2.76651C15.6283 2.34505 14.85 2.12192 14.0591 2.12192C12.675 2.12192 11.3792 2.78304 10.5042 3.93174L9.99936 4.60112L9.49452 3.93174C8.61948 2.78304 7.32794 2.12192 5.93964 2.12192Z" fill="#333333"/>
</svg>
