<svg width="20" height="20" viewBox="0 0 20 20" fill="none" xmlns="http://www.w3.org/2000/svg">
<path fill-rule="evenodd" clip-rule="evenodd" d="M1.36126 12.7157C-0.178983 6.75443 4.27602 1.40538 9.97903 1.40538C10.7733 1.40538 11.5958 1.51152 12.4339 1.72952C15.4796 2.54008 17.8666 4.99411 18.6224 8.05108C19.1807 10.3189 18.8773 12.4861 17.9734 14.2984C17.8321 14.5811 17.7862 14.9136 17.8731 15.2312C17.8732 15.2316 17.8733 15.2319 17.8734 15.2323L18.8971 19.0502L15.1829 18.0567C15.1823 18.0565 15.1817 18.0564 15.1811 18.0562C15.0663 18.0245 14.9547 18.0128 14.849 18.0128C14.6259 18.0128 14.4045 18.0742 14.211 18.1795C12.9476 18.86 11.5119 19.2546 9.97903 19.2546C9.265 19.2546 8.52882 19.1696 7.77872 18.9864L7.77819 18.9862C6.41703 18.6559 4.98755 17.7802 3.80349 16.6257C2.61933 15.4711 1.71197 14.0682 1.36126 12.7157ZM9.97903 2.68695C7.59677 2.68695 5.39377 3.76723 3.93202 5.65567C2.47285 7.54078 1.98434 9.99431 2.60309 12.3932C2.89141 13.5094 3.67243 14.708 4.69414 15.7055C5.71548 16.7027 6.94057 17.4632 8.07867 17.74C8.71165 17.8929 9.35078 17.973 9.97903 17.973C11.2543 17.973 12.4691 17.6652 13.5974 17.0567C13.9831 16.8486 14.4165 16.7356 14.849 16.7356C15.0762 16.7356 15.2965 16.7667 15.5092 16.8224L15.5108 16.8228L17.086 17.2431L16.6355 15.5619C16.4707 14.9489 16.5438 14.2983 16.8288 13.7284C17.651 12.0795 17.8428 10.2266 17.3807 8.36081C16.7266 5.72763 14.706 3.66216 12.1061 2.9711L12.1049 2.97079C11.397 2.78002 10.6812 2.68695 9.97903 2.68695Z" fill="#333333"/>
<path fill-rule="evenodd" clip-rule="evenodd" d="M9.97903 0.693848C3.82086 0.693848 -0.986827 6.47235 0.67238 12.8938C1.06413 14.4048 2.05709 15.9166 3.30676 17.1351C4.55645 18.3536 6.09427 19.3096 7.60985 19.6776C8.41531 19.8743 9.20819 19.9661 9.97903 19.9661C11.6365 19.9661 13.1879 19.5389 14.5493 18.8055L14.5509 18.8046C14.6489 18.7512 14.7543 18.7243 14.849 18.7243C14.9019 18.7243 14.9488 18.7302 14.9924 18.7423L18.9222 19.7935L18.9333 19.7957L18.9365 19.7964C18.9527 19.7997 19.0089 19.8115 19.065 19.8115C19.4368 19.8115 19.7397 19.4612 19.6393 19.071L18.5601 15.046L18.5595 15.0439C18.5231 14.911 18.5393 14.7576 18.6099 14.6164C19.5884 12.6548 19.9124 10.3143 19.3131 7.88032C18.4957 4.5739 15.9158 1.91948 12.616 1.04166L12.6141 1.04117C11.7202 0.808585 10.8372 0.693848 9.97903 0.693848ZM9.97903 1.40538C4.27602 1.40538 -0.178983 6.75443 1.36126 12.7157C1.71197 14.0682 2.61933 15.4711 3.80349 16.6257C4.98755 17.7802 6.41703 18.6559 7.77819 18.9862L7.77872 18.9864C8.52882 19.1696 9.265 19.2546 9.97903 19.2546C11.5119 19.2546 12.9476 18.86 14.211 18.1795C14.4045 18.0742 14.6259 18.0128 14.849 18.0128C14.9547 18.0128 15.0663 18.0245 15.1811 18.0562L15.1829 18.0567L18.8971 19.0502L17.8734 15.2323L17.8731 15.2312C17.7862 14.9136 17.8321 14.5811 17.9734 14.2984C18.8773 12.4861 19.1807 10.3189 18.6224 8.05108C17.8666 4.99411 15.4796 2.54008 12.4339 1.72952C11.5958 1.51152 10.7733 1.40538 9.97903 1.40538Z" fill="#333333"/>
</svg>
